<svg xmlns="http://www.w3.org/2000/svg" xmlns:xlink="http://www.w3.org/1999/xlink" zoomAndPan="magnify" viewBox="0 0 814.5 778.499977" preserveAspectRatio="none" version="1.0"><defs><clipPath id="7d040059ed"><path d="M 66 105 L 813 105 L 813 772.003906 L 66 772.003906 Z M 66 105 " clip-rule="nonzero"/></clipPath></defs><path stroke-linecap="butt" transform="matrix(0.619338, -0.422136, 0.422136, 0.619338, 410.87922, 252.664755)" fill="none" stroke-linejoin="miter" d="M -0.00104665 3.498631 L 110.437901 3.497235 " stroke="#1c0f13" stroke-width="7" stroke-opacity="1" stroke-miterlimit="4"/><g clip-path="url(#7d040059ed)"><path fill="#000000" d="M 203.949219 648.925781 C 195.710938 654.347656 193.4375 665.417969 198.851562 673.648438 L 258.308594 763.980469 C 260.914062 767.9375 264.984375 770.699219 269.621094 771.652344 C 270.816406 771.898438 272.019531 772.019531 273.222656 772.019531 C 276.679688 772.019531 280.097656 771.011719 283.035156 769.078125 L 804.84375 425.511719 C 808.800781 422.910156 811.554688 418.839844 812.511719 414.203125 C 813.464844 409.5625 812.539062 404.738281 809.941406 400.785156 L 750.476562 310.449219 C 747.871094 306.492188 743.800781 303.734375 739.164062 302.777344 C 734.535156 301.84375 729.707031 302.75 725.75 305.355469 C 718.261719 310.285156 709.589844 312.890625 700.683594 312.890625 C 685.21875 312.890625 670.925781 305.199219 662.445312 292.308594 C 648.585938 271.253906 654.433594 242.855469 675.484375 228.996094 C 679.441406 226.394531 682.195312 222.328125 683.15625 217.691406 C 684.105469 213.050781 683.183594 208.222656 680.585938 204.273438 L 621.113281 113.941406 C 615.691406 105.707031 604.632812 103.417969 596.386719 108.84375 L 74.589844 452.410156 C 66.351562 457.832031 64.066406 468.902344 69.488281 477.136719 L 128.949219 567.46875 C 131.554688 571.425781 135.625 574.183594 140.261719 575.140625 C 144.890625 576.085938 149.71875 575.171875 153.675781 572.566406 C 161.171875 567.636719 169.84375 565.023438 178.75 565.023438 C 194.214844 565.023438 208.507812 572.722656 216.988281 585.605469 C 230.84375 606.65625 224.996094 635.066406 203.949219 648.925781 Z M 178.75 529.320312 C 168.875 529.320312 159.167969 531.113281 150.039062 534.570312 L 109.128906 472.417969 L 472.796875 232.96875 L 477.703125 240.421875 C 480.273438 244.332031 484.542969 246.449219 488.894531 246.449219 C 491.421875 246.449219 493.976562 245.734375 496.25 244.242188 C 502.421875 240.175781 504.128906 231.875 500.066406 225.699219 L 495.160156 218.242188 L 601.109375 148.480469 L 642.027344 210.640625 C 616.167969 237.429688 611.316406 279.566406 632.613281 311.945312 C 647.730469 334.898438 673.167969 348.597656 700.675781 348.597656 C 710.550781 348.597656 720.25 346.808594 729.386719 343.351562 L 770.300781 405.507812 L 664.347656 475.265625 L 659.441406 467.8125 C 655.382812 461.632812 647.089844 459.945312 640.894531 463.992188 C 634.722656 468.058594 633.015625 476.359375 637.078125 482.535156 L 641.984375 489.992188 L 278.308594 729.4375 L 237.394531 667.285156 C 263.253906 640.488281 268.109375 598.351562 246.800781 565.972656 C 231.699219 543.023438 206.257812 529.320312 178.75 529.320312 Z M 178.75 529.320312 " fill-opacity="1" fill-rule="nonzero"/></g><path fill="#000000" d="M 605.207031 434.113281 C 607.777344 438.019531 612.046875 440.136719 616.398438 440.136719 C 618.925781 440.136719 621.488281 439.421875 623.753906 437.929688 C 629.925781 433.863281 631.632812 425.554688 627.574219 419.378906 L 595.6875 370.957031 C 591.628906 364.785156 583.3125 363.097656 577.140625 367.140625 C 570.96875 371.207031 569.261719 379.515625 573.324219 385.6875 Z M 605.207031 434.113281 " fill-opacity="1" fill-rule="nonzero"/><path fill="#000000" d="M 541.449219 337.261719 C 544.019531 341.171875 548.292969 343.289062 552.644531 343.289062 C 555.171875 343.289062 557.726562 342.574219 559.996094 341.082031 C 566.167969 337.015625 567.878906 328.714844 563.816406 322.539062 L 531.941406 274.117188 C 527.882812 267.9375 519.589844 266.246094 513.394531 270.296875 C 507.222656 274.363281 505.515625 282.664062 509.578125 288.839844 Z M 541.449219 337.261719 " fill-opacity="1" fill-rule="nonzero"/><path fill="#000000" d="M 455.355469 84.71875 C 460.394531 76.253906 457.621094 65.296875 449.148438 60.253906 L 356.238281 4.925781 C 347.804688 -0.0898438 336.925781 2.636719 331.84375 11.003906 C 330.46875 13.28125 193.152344 239.804688 113.382812 373.785156 C 108.34375 382.25 111.117188 393.207031 119.589844 398.25 C 122.457031 399.957031 125.601562 400.769531 128.707031 400.769531 C 134.789062 400.769531 140.726562 397.652344 144.0625 392.046875 C 181.292969 329.507812 231.070312 246.796875 273.707031 176.148438 L 279.011719 179.308594 C 281.164062 180.585938 283.519531 181.191406 285.855469 181.191406 C 290.410156 181.191406 294.859375 178.859375 297.367188 174.65625 C 301.148438 168.300781 299.066406 160.082031 292.714844 156.300781 L 287.546875 153.222656 C 316.4375 105.375 340.671875 65.34375 353.191406 44.667969 L 417.226562 82.800781 C 412.648438 96.699219 412.058594 111.578125 415.382812 126.140625 C 415.398438 126.289062 415.441406 126.433594 415.464844 126.582031 C 415.617188 127.230469 415.65625 127.882812 415.824219 128.527344 C 415.875 128.738281 415.984375 128.921875 416.042969 129.128906 C 416.105469 129.339844 416.117188 129.550781 416.1875 129.761719 C 424.410156 154.109375 440.757812 171.246094 462.234375 178.019531 C 464.019531 178.585938 465.824219 178.851562 467.609375 178.851562 C 475.191406 178.851562 482.226562 173.976562 484.625 166.363281 C 487.585938 156.960938 482.375 146.933594 472.972656 143.972656 C 462.84375 140.777344 454.839844 131.941406 450.3125 119.089844 C 447.394531 107.328125 449.148438 95.144531 455.355469 84.71875 Z M 455.355469 84.71875 " fill-opacity="1" fill-rule="nonzero"/><path fill="#000000" d="M 62.8125 494.503906 C 54.320312 489.453125 43.375 492.242188 38.335938 500.703125 C 26.222656 521.0625 12.25 547.6875 11.667969 548.8125 C 7.265625 557.207031 10.203125 567.582031 18.339844 572.433594 L 111.261719 627.769531 C 114.050781 629.429688 117.207031 630.28125 120.394531 630.28125 C 121.867188 630.28125 123.339844 630.101562 124.789062 629.734375 C 129.378906 628.566406 133.320312 625.625 135.746094 621.554688 C 137.730469 618.207031 140.121094 615.140625 142.855469 612.441406 C 149.863281 605.503906 149.917969 594.199219 142.988281 587.191406 C 136.050781 580.183594 124.761719 580.128906 117.738281 587.058594 C 117.113281 587.683594 116.492188 588.320312 115.882812 588.96875 L 51.257812 550.480469 C 56.296875 541.195312 62.976562 529.117188 69.019531 518.976562 C 74.054688 510.503906 71.285156 499.546875 62.8125 494.503906 Z M 62.8125 494.503906 " fill-opacity="1" fill-rule="nonzero"/><path fill="#000000" d="M 329.394531 178.140625 L 315.398438 200.96875 C 315.398438 200.96875 346 219.726562 351.742188 223.148438 C 353.894531 224.425781 356.246094 225.03125 358.582031 225.03125 C 363.140625 225.03125 367.59375 222.699219 370.097656 218.492188 C 373.878906 212.136719 371.796875 203.921875 365.441406 200.136719 C 359.734375 196.746094 329.394531 178.148438 329.394531 178.140625 Z M 329.394531 178.140625 " fill-opacity="1" fill-rule="nonzero"/></svg>